<svg width="115" height="34" viewBox="0 0 115 34" fill="none" xmlns="http://www.w3.org/2000/svg">
<path d="M0 0.915894H2.24743C6.6657 0.915894 10.2474 4.49761 10.2474 8.91589V31.6582H8C3.58172 31.6582 0 28.0764 0 23.6582V0.915894Z" fill="black"/>
<path d="M28.7526 0.915894C34.4121 0.915894 39 5.50382 39 11.1633V31.6582C33.3405 31.6582 28.7526 27.0702 28.7526 21.4107V0.915894Z" fill="black"/>
<rect x="0.629272" y="7.70126" width="6.97665" height="32.2838" rx="3.48833" transform="rotate(-38.1645 0.629272 7.70126)" fill="#FF0000" fill-opacity="0.5"/>
<rect x="31.5336" y="3.39975" width="7.1223" height="30.1514" rx="3.56115" transform="rotate(30 31.5336 3.39975)" fill="#0066FF" fill-opacity="0.6"/>
<path d="M53.616 31.8599C53.2053 32.1026 52.636 32.2239 51.908 32.2239C51.292 32.2239 50.7973 32.0559 50.424 31.7199C50.0693 31.3652 49.892 30.7959 49.892 30.0119C49.2387 30.7959 48.4733 31.3652 47.596 31.7199C46.7373 32.0559 45.804 32.2239 44.796 32.2239C44.1427 32.2239 43.5173 32.1492 42.92 31.9999C42.3413 31.8506 41.8373 31.6172 41.408 31.2999C40.9787 30.9826 40.6333 30.5719 40.372 30.0679C40.1293 29.5452 40.008 28.9199 40.008 28.1919C40.008 27.3706 40.148 26.6986 40.428 26.1759C40.708 25.6532 41.072 25.2332 41.52 24.9159C41.9867 24.5799 42.5093 24.3279 43.088 24.1599C43.6853 23.9919 44.292 23.8519 44.908 23.7399C45.5613 23.6092 46.1773 23.5159 46.756 23.4599C47.3533 23.3852 47.876 23.2919 48.324 23.1799C48.772 23.0492 49.1267 22.8719 49.388 22.6479C49.6493 22.4052 49.78 22.0599 49.78 21.6119C49.78 21.0892 49.6773 20.6692 49.472 20.3519C49.2853 20.0346 49.0333 19.7919 48.716 19.6239C48.4173 19.4559 48.072 19.3439 47.68 19.2879C47.3067 19.2319 46.9333 19.2039 46.56 19.2039C45.552 19.2039 44.712 19.3999 44.04 19.7919C43.368 20.1652 43.004 20.8839 42.948 21.9479H40.568C40.6053 21.0519 40.792 20.2959 41.128 19.6799C41.464 19.0639 41.912 18.5692 42.472 18.1959C43.032 17.8039 43.6667 17.5239 44.376 17.3559C45.104 17.1879 45.8787 17.1039 46.7 17.1039C47.3533 17.1039 47.9973 17.1506 48.632 17.2439C49.2853 17.3372 49.8733 17.5332 50.396 17.8319C50.9187 18.1119 51.3387 18.5132 51.656 19.0359C51.9733 19.5586 52.132 20.2399 52.132 21.0799V28.5279C52.132 29.0879 52.16 29.4986 52.216 29.7599C52.2907 30.0212 52.5147 30.1519 52.888 30.1519C53.0933 30.1519 53.336 30.1052 53.616 30.0119V31.8599ZM49.752 24.4399C49.4533 24.6639 49.0613 24.8319 48.576 24.9439C48.0907 25.0372 47.5773 25.1212 47.036 25.1959C46.5133 25.2519 45.9813 25.3266 45.44 25.4199C44.8987 25.4946 44.4133 25.6252 43.984 25.8119C43.5547 25.9986 43.2 26.2692 42.92 26.6239C42.6587 26.9599 42.528 27.4266 42.528 28.0239C42.528 28.4159 42.6027 28.7519 42.752 29.0319C42.92 29.2932 43.1253 29.5079 43.368 29.6759C43.6293 29.8439 43.928 29.9652 44.264 30.0399C44.6 30.1146 44.9547 30.1519 45.328 30.1519C46.112 30.1519 46.784 30.0492 47.344 29.8439C47.904 29.6199 48.3613 29.3492 48.716 29.0319C49.0707 28.6959 49.332 28.3412 49.5 27.9679C49.668 27.5759 49.752 27.2119 49.752 26.8759V24.4399ZM66.6951 31.9159V17.4399H64.3151V25.6159C64.3151 26.2692 64.2217 26.8759 64.0351 27.4359C63.8671 27.9772 63.6057 28.4532 63.2511 28.8639C62.8964 29.2746 62.4484 29.5919 61.9071 29.8159C61.3844 30.0399 60.7591 30.1519 60.0311 30.1519C59.1164 30.1519 58.3977 29.8906 57.8751 29.3679C57.3524 28.8452 57.0911 28.1359 57.0911 27.2399V17.4399H54.7111V26.9599C54.7111 27.7439 54.7857 28.4626 54.9351 29.1159C55.1031 29.7506 55.3831 30.3012 55.7751 30.7679C56.1671 31.2346 56.6804 31.5986 57.3151 31.8599C57.9497 32.1026 58.7431 32.2239 59.6951 32.2239C60.7591 32.2239 61.6831 32.0186 62.4671 31.6079C63.2511 31.1786 63.8951 30.5159 64.3991 29.6199H64.4551V31.9159H66.6951ZM69.0657 17.4399V31.9159H71.4457V25.4759C71.4457 24.5426 71.539 23.7212 71.7257 23.0119C71.9123 22.2839 72.211 21.6679 72.6217 21.1639C73.0323 20.6599 73.5737 20.2772 74.2457 20.0159C74.9177 19.7546 75.7297 19.6239 76.6817 19.6239V17.1039C75.3937 17.0666 74.3297 17.3279 73.4897 17.8879C72.6497 18.4479 71.9403 19.3159 71.3617 20.4919H71.3057V17.4399H69.0657ZM79.8739 14.8359V11.9239H77.4939V14.8359H79.8739ZM77.4939 17.4399V31.9159H79.8739V17.4399H77.4939ZM81.2649 30.0959V31.9159H93.4729V29.8159H84.2329L93.0809 19.0639V17.4399H81.8249V19.5399H90.0009L81.2649 30.0959ZM97.294 14.8359V11.9239H94.914V14.8359H97.294ZM94.914 17.4399V31.9159H97.294V17.4399H94.914ZM101.597 24.6919C101.597 23.8146 101.709 23.0399 101.933 22.3679C102.176 21.6772 102.502 21.0986 102.913 20.6319C103.324 20.1652 103.8 19.8106 104.341 19.5679C104.901 19.3252 105.489 19.2039 106.105 19.2039C106.721 19.2039 107.3 19.3252 107.841 19.5679C108.401 19.8106 108.886 20.1652 109.297 20.6319C109.708 21.0986 110.025 21.6772 110.249 22.3679C110.492 23.0399 110.613 23.8146 110.613 24.6919C110.613 25.5692 110.492 26.3532 110.249 27.0439C110.025 27.7159 109.708 28.2852 109.297 28.7519C108.886 29.1999 108.401 29.5452 107.841 29.7879C107.3 30.0306 106.721 30.1519 106.105 30.1519C105.489 30.1519 104.901 30.0306 104.341 29.7879C103.8 29.5452 103.324 29.1999 102.913 28.7519C102.502 28.2852 102.176 27.7159 101.933 27.0439C101.709 26.3532 101.597 25.5692 101.597 24.6919ZM99.0771 24.6919C99.0771 25.7559 99.2264 26.7452 99.5251 27.6599C99.8237 28.5746 100.272 29.3772 100.869 30.0679C101.466 30.7399 102.204 31.2719 103.081 31.6639C103.958 32.0372 104.966 32.2239 106.105 32.2239C107.262 32.2239 108.27 32.0372 109.129 31.6639C110.006 31.2719 110.744 30.7399 111.341 30.0679C111.938 29.3772 112.386 28.5746 112.685 27.6599C112.984 26.7452 113.133 25.7559 113.133 24.6919C113.133 23.6279 112.984 22.6386 112.685 21.7239C112.386 20.7906 111.938 19.9879 111.341 19.3159C110.744 18.6252 110.006 18.0839 109.129 17.6919C108.27 17.2999 107.262 17.1039 106.105 17.1039C104.966 17.1039 103.958 17.2999 103.081 17.6919C102.204 18.0839 101.466 18.6252 100.869 19.3159C100.272 19.9879 99.8237 20.7906 99.5251 21.7239C99.2264 22.6386 99.0771 23.6279 99.0771 24.6919Z" fill="black"/>
</svg>
